<svg width="40" height="41" viewBox="0 0 40 41" fill="none" xmlns="http://www.w3.org/2000/svg">
<path d="M20 5.5C19.0833 5.5 18.3333 6.25 18.3333 7.16667V20.5C18.3333 21.4167 19.0833 22.1667 20 22.1667C20.9167 22.1667 21.6667 21.4167 21.6667 20.5V7.16667C21.6667 6.25 20.9167 5.5 20 5.5ZM28.5667 10.2667C28.2601 10.5732 28.0865 10.9881 28.0834 11.4216C28.0803 11.8551 28.2479 12.2724 28.55 12.5833C30.4333 14.5833 31.6 17.25 31.6667 20.2C31.8167 26.5833 26.5333 32.0833 20.15 32.15C18.6056 32.1741 17.0718 31.8905 15.6382 31.3156C14.2045 30.7408 12.8997 29.8862 11.7998 28.8018C10.6999 27.7174 9.82685 26.4248 9.2317 24.9995C8.63655 23.5742 8.33116 22.0446 8.33334 20.5C8.33334 17.4333 9.51667 14.65 11.45 12.5667C12.0667 11.9167 12.0667 10.9 11.4333 10.2667C11.2767 10.1086 11.0898 9.98376 10.8839 9.89958C10.6779 9.81539 10.4571 9.77361 10.2346 9.77672C10.0121 9.77983 9.79253 9.82778 9.58899 9.91769C9.38546 10.0076 9.20214 10.1376 9.05001 10.3C6.54884 12.9493 5.10762 16.4248 5.00001 20.0667C4.76667 28.2 11.3833 35.2333 19.5167 35.4833C28.0167 35.75 35 28.9333 35 20.4833C35 16.5333 33.4667 12.9667 30.9667 10.3C30.3333 9.61667 29.2333 9.6 28.5667 10.2667Z" fill="#1DA1F2"/>
</svg>
